<svg width="20" height="20" viewBox="0 0 20 20" fill="none" xmlns="http://www.w3.org/2000/svg">
<g id="drafts" clip-path="url(#clip0_5320_1335)">
<path id="Vector" d="M18.325 6.66667C18.325 6.06667 18.0166 5.54167 17.5416 5.25L10.8416 1.325C10.325 1.01667 9.67496 1.01667 9.15829 1.325L2.45829 5.25C1.98329 5.54167 1.66663 6.06667 1.66663 6.66667V15C1.66663 15.9167 2.41663 16.6667 3.33329 16.6667H16.6666C17.5833 16.6667 18.3333 15.9167 18.3333 15L18.325 6.66667ZM9.11663 10.2833L3.11663 6.53333L9.15829 2.99167C9.67496 2.68333 10.325 2.68333 10.8416 2.99167L16.8833 6.53333L10.8833 10.2833C10.3416 10.6167 9.65829 10.6167 9.11663 10.2833Z" fill="#121720"/>
</g>
<defs>
<clipPath id="clip0_5320_1335">
<rect width="20" height="20" fill="white"/>
</clipPath>
</defs>
</svg>
