<svg width="20" height="20" viewBox="0 0 20 20" fill="none" xmlns="http://www.w3.org/2000/svg">
<g id="favorite_border" opacity="0.5" clip-path="url(#clip0_5320_1332)">
<path id="Vector" d="M16.3833 3.32506C14.1833 1.82506 11.4666 2.52506 9.99997 4.24172C8.53331 2.52506 5.81664 1.81672 3.61664 3.32506C2.44997 4.12506 1.71664 5.47506 1.66664 6.90006C1.54997 10.1334 4.41664 12.7251 8.79164 16.7001L8.87497 16.7751C9.50831 17.3501 10.4833 17.3501 11.1166 16.7667L11.2083 16.6834C15.5833 12.7167 18.4416 10.1251 18.3333 6.89172C18.2833 5.47506 17.55 4.12506 16.3833 3.32506ZM10.0833 15.4584L9.99997 15.5417L9.91664 15.4584C5.94997 11.8667 3.33331 9.49172 3.33331 7.08339C3.33331 5.41672 4.58331 4.16672 6.24997 4.16672C7.53331 4.16672 8.78331 4.99172 9.22497 6.13339H10.7833C11.2166 4.99172 12.4666 4.16672 13.75 4.16672C15.4166 4.16672 16.6666 5.41672 16.6666 7.08339C16.6666 9.49172 14.05 11.8667 10.0833 15.4584Z" fill="#9095A9"/>
</g>
<defs>
<clipPath id="clip0_5320_1332">
<rect width="20" height="20" fill="white"/>
</clipPath>
</defs>
</svg>
