<svg width="20" height="20" viewBox="0 0 20 20" fill="none" xmlns="http://www.w3.org/2000/svg">
<g id="favorite_border" clip-path="url(#clip0_5268_5279)">
<path id="Vector" d="M16.3834 3.325C14.1834 1.825 11.4668 2.525 10.0001 4.24166C8.53343 2.525 5.81676 1.81666 3.61676 3.325C2.4501 4.125 1.71676 5.475 1.66676 6.9C1.5501 10.1333 4.41676 12.725 8.79176 16.7L8.8751 16.775C9.50843 17.35 10.4834 17.35 11.1168 16.7667L11.2084 16.6833C15.5834 12.7167 18.4418 10.125 18.3334 6.89166C18.2834 5.475 17.5501 4.125 16.3834 3.325ZM10.0834 15.4583L10.0001 15.5417L9.91676 15.4583C5.9501 11.8667 3.33343 9.49166 3.33343 7.08333C3.33343 5.41666 4.58343 4.16666 6.2501 4.16666C7.53343 4.16666 8.78343 4.99166 9.2251 6.13333H10.7834C11.2168 4.99166 12.4668 4.16666 13.7501 4.16666C15.4168 4.16666 16.6668 5.41666 16.6668 7.08333C16.6668 9.49166 14.0501 11.8667 10.0834 15.4583Z" fill="#7984C0"/>
</g>
<defs>
<clipPath id="clip0_5268_5279">
<rect width="20" height="20" fill="white"/>
</clipPath>
</defs>
</svg>
